# Blender 4.4.3
# www.blender.org
mtllib thing.mtl
o Plane
v -1.000000 0.000000 1.000000
v 1.000000 0.000000 1.000000
v -1.000000 0.000000 -1.000000
v 1.000000 0.000000 -1.000000
v -1.000000 0.133089 1.000000
v 1.000000 0.133089 1.000000
v -1.000000 0.133089 -1.000000
v 1.000000 0.133089 -1.000000
v -1.000000 0.133089 1.000000
v 1.000000 0.133089 1.000000
v -1.000000 0.133089 -1.000000
v 1.000000 0.133089 -1.000000
v -0.834084 0.204584 0.834084
v 0.834084 0.204584 0.834084
v -0.834084 0.204584 -0.834084
v 0.834084 0.204584 -0.834084
v -0.749211 0.292885 0.749211
v 0.749211 0.292885 0.749211
v -0.749211 0.292885 -0.749211
v 0.749211 0.292885 -0.749211
v -0.673393 0.420294 0.673393
v 0.673393 0.420294 0.673393
v -0.673393 0.420294 -0.673393
v 0.673393 0.420294 -0.673393
v -0.593145 0.573342 0.593145
v 0.593145 0.573342 0.593145
v -0.593145 0.573342 -0.593145
v 0.593145 0.573342 -0.593145
v -0.562165 0.662361 0.562165
v 0.562165 0.662361 0.562165
v -0.562165 0.662361 -0.562165
v 0.562165 0.662361 -0.562165
v -0.514763 0.742800 0.514763
v 0.514763 0.742800 0.514763
v -0.514763 0.742800 -0.514763
v 0.514763 0.742800 -0.514763
v -0.412556 0.810997 0.412556
v 0.412556 0.810997 0.412556
v -0.412556 0.810997 -0.412556
v 0.412556 0.810997 -0.412556
v -0.318486 0.863719 0.318486
v 0.318486 0.863719 0.318486
v -0.318486 0.863719 -0.318486
v 0.318486 0.863719 -0.318486
v -0.318486 0.912363 0.318486
v 0.318486 0.912363 0.318486
v -0.318486 0.912363 -0.318486
v 0.318486 0.912363 -0.318486
v -0.318486 0.912363 0.318486
v 0.318486 0.912363 0.318486
v -0.318486 0.912363 -0.318486
v 0.318486 0.912363 -0.318486
v -0.058434 1.038368 0.058434
v 0.058434 1.038368 0.058434
v -0.058434 1.038368 -0.058434
v 0.058434 1.038368 -0.058434
vn -0.0000 -1.0000 -0.0000
vn -0.0000 1.0000 -0.0000
vn 1.0000 -0.0000 -0.0000
vn -1.0000 -0.0000 -0.0000
vn -0.0000 -0.0000 -1.0000
vn -0.0000 -0.0000 1.0000
vn -0.0000 0.9184 -0.3957
vn -0.0000 0.6930 0.7210
vn -0.0000 0.9184 0.3957
vn 0.3957 0.9184 -0.0000
vn -0.3957 0.9184 -0.0000
vn 0.8594 0.5114 -0.0000
vn 0.7210 0.6930 -0.0000
vn -0.7210 0.6930 -0.0000
vn -0.0000 0.6930 -0.7210
vn -0.0000 0.4644 -0.8856
vn -0.8594 0.5114 -0.0000
vn -0.0000 0.5114 -0.8594
vn -0.0000 0.5114 0.8594
vn 0.9444 0.3287 -0.0000
vn -0.0000 0.4644 0.8856
vn 0.8856 0.4644 -0.0000
vn -0.8856 0.4644 -0.0000
vn 0.8615 0.5077 -0.0000
vn -0.9444 0.3287 -0.0000
vn -0.0000 0.3287 -0.9444
vn -0.0000 0.3287 0.9444
vn -0.0000 0.8318 -0.5550
vn -0.8615 0.5077 -0.0000
vn -0.0000 0.5077 -0.8615
vn -0.0000 0.5077 0.8615
vn -0.0000 0.8723 -0.4889
vn -0.0000 0.8318 0.5550
vn 0.5550 0.8318 -0.0000
vn -0.5550 0.8318 -0.0000
vn -0.0000 0.8723 0.4889
vn 0.4889 0.8723 -0.0000
vn -0.4889 0.8723 -0.0000
vn -0.0000 0.8999 -0.4360
vn -0.0000 0.8999 0.4360
vn 0.4360 0.8999 -0.0000
vn -0.4360 0.8999 -0.0000
vt 0.000000 0.000000
vt 0.000000 1.000000
vt 1.000000 1.000000
vt 1.000000 0.000000
s 0
f 1/1/1 3/2/1 4/3/1 2/4/1
f 6/4/2 8/3/2 12/3/2 10/4/2
f 2/4/3 4/3/3 8/3/3 6/4/3
f 3/2/4 1/1/4 5/1/4 7/2/4
f 4/3/5 3/2/5 7/2/5 8/3/5
f 1/1/6 2/4/6 6/4/6 5/1/6
f 12/3/7 11/2/7 15/2/7 16/3/7
f 7/2/2 5/1/2 9/1/2 11/2/2
f 8/3/2 7/2/2 11/2/2 12/3/2
f 5/1/2 6/4/2 10/4/2 9/1/2
f 13/1/8 14/4/8 18/4/8 17/1/8
f 9/1/9 10/4/9 14/4/9 13/1/9
f 10/4/10 12/3/10 16/3/10 14/4/10
f 11/2/11 9/1/11 13/1/11 15/2/11
f 18/4/12 20/3/12 24/3/12 22/4/12
f 14/4/13 16/3/13 20/3/13 18/4/13
f 15/2/14 13/1/14 17/1/14 19/2/14
f 16/3/15 15/2/15 19/2/15 20/3/15
f 24/3/16 23/2/16 27/2/16 28/3/16
f 19/2/17 17/1/17 21/1/17 23/2/17
f 20/3/18 19/2/18 23/2/18 24/3/18
f 17/1/19 18/4/19 22/4/19 21/1/19
f 26/4/20 28/3/20 32/3/20 30/4/20
f 21/1/21 22/4/21 26/4/21 25/1/21
f 22/4/22 24/3/22 28/3/22 26/4/22
f 23/2/23 21/1/23 25/1/23 27/2/23
f 30/4/24 32/3/24 36/3/24 34/4/24
f 27/2/25 25/1/25 29/1/25 31/2/25
f 28/3/26 27/2/26 31/2/26 32/3/26
f 25/1/27 26/4/27 30/4/27 29/1/27
f 36/3/28 35/2/28 39/2/28 40/3/28
f 31/2/29 29/1/29 33/1/29 35/2/29
f 32/3/30 31/2/30 35/2/30 36/3/30
f 29/1/31 30/4/31 34/4/31 33/1/31
f 40/3/32 39/2/32 43/2/32 44/3/32
f 33/1/33 34/4/33 38/4/33 37/1/33
f 34/4/34 36/3/34 40/3/34 38/4/34
f 35/2/35 33/1/35 37/1/35 39/2/35
f 42/4/3 44/3/3 48/3/3 46/4/3
f 37/1/36 38/4/36 42/4/36 41/1/36
f 38/4/37 40/3/37 44/3/37 42/4/37
f 39/2/38 37/1/38 41/1/38 43/2/38
f 46/4/2 48/3/2 52/3/2 50/4/2
f 43/2/4 41/1/4 45/1/4 47/2/4
f 44/3/5 43/2/5 47/2/5 48/3/5
f 41/1/6 42/4/6 46/4/6 45/1/6
f 52/3/39 51/2/39 55/2/39 56/3/39
f 47/2/2 45/1/2 49/1/2 51/2/2
f 48/3/2 47/2/2 51/2/2 52/3/2
f 45/1/2 46/4/2 50/4/2 49/1/2
f 53/1/2 54/4/2 56/3/2 55/2/2
f 49/1/40 50/4/40 54/4/40 53/1/40
f 50/4/41 52/3/41 56/3/41 54/4/41
f 51/2/42 49/1/42 53/1/42 55/2/42
